/* XPM */
static char * object_xpm[] = {
"20 15 32 1",
" 	c None",
".	c #828282",
"+	c #000000",
"@	c #FFF993",
"#	c #FFFFFF",
"$	c #7A7A7A",
"%	c #4D4D4D",
"&	c #6D6D6D",
"*	c #B3B3B3",
"=	c #757575",
"-	c #333333",
";	c #5F5F5F",
">	c #898989",
",	c #AAAAAA",
"'	c #D4D4D4",
")	c #1F1F1F",
"!	c #3E3E3E",
"~	c #6F6F6F",
"{	c #9F9F9F",
"]	c #CDCDCD",
"^	c #E8E8E8",
"/	c #CCCCCC",
"(	c #E6E6E6",
"_	c #323232",
":	c #5E5E5E",
"<	c #888888",
"[	c #A8A8A8",
"}	c #D3D3D3",
"|	c #797979",
"1	c #4C4C4C",
"2	c #6B6B6B",
"3	c #B2B2B2",
"                    ",
"                    ",
"    ............... ",
"   .+++++++++++++++.",
"  .+@@@@@@@@@@@@@@+.",
" .+@@@@@@#$%&*##@@+.",
".+@@@@@@@=-;>,'#@@+.",
".+@++@@@@)!~{]^#@@+.",
".+@++@@@@)!~{/(#@@+.",
".+@@@@@@@=_:<[}#@@+.",
" .+@@@@@@#|123##@@+.",
"  .+@@@@@@@@@@@@@@+.",
".  .+++++++++++++++.",
"    ............... ",
"                    "};
