/* XPM */
static char * string_xpm[] = {
"20 15 5 1",
" 	c None",
".	c #828282",
"+	c #000000",
"@	c #FFF993",
"#	c #ACACAC",
"                    ",
"                    ",
"    ............... ",
"   .+++++++++++++++.",
"  .+@@@@@@@@@@@@@@+.",
" .+@@@@@@@@@@@@@@@+.",
".+@@@@@@@@+@@@@@@@+.",
".+@++@@@@@+@@@@@@@+.",
".+@++@#++@++#@#+@@+.",
".+@@@@+@+@+@+@+@@@+.",
" .+@@@+++@++#@++@@+.",
"  .+@@@@@@@@@@@@@@+.",
".  .+++++++++++++++.",
"    ............... ",
"                    "};
