/* XPM */
static char * tree_xpm[] = {
"20 15 5 1",
" 	c None",
".	c #828282",
"+	c #000000",
"@	c #FFF993",
"#	c #949494",
"                    ",
"                    ",
"    ............... ",
"   .+++++++++++++++.",
"  .+@@@@@@@@@@@@@@+.",
" .+@@@@@@@@++@@@@@+.",
".+@@@@@@@@#@#@@@@@+.",
".+@++@@@++@@@#@@@@+.",
".+@++@@@@@@#++@@@@+.",
".+@@@@@@@@##@@#@@@+.",
" .+@@@@@@++@@@++@@+.",
"  .+@@@@@@@@@@@@@@+.",
".  .+++++++++++++++.",
"    ............... ",
"                    "};
