/* XPM */
static char * tree_xpm[] = {
"20 15 7 1",
" 	c None",
".	c #828282",
"+	c #000000",
"@	c #FFF993",
"#	c #00FF33",
"$	c #649744",
"%	c #C57305",
"                    ",
"                    ",
"    ............... ",
"   .+++++++++++++++.",
"  .+@@@@@@#@@#@@@@+.",
" .+@@@@@@###$##@@@+.",
".+@@@@@@#$###$$#@@+.",
".+@++@@$##$###$##@+.",
".+@++@@%$#$####$$@+.",
".+@@@@@@%%$#%#$%@@+.",
" .+@@@@@@@%%%%%@@@+.",
"  .+@@@@@@@%%@@@@@+.",
".  .+++++++++++++++.",
"    ............... ",
"                    "};
